<svg width="300" height="304" viewBox="0 0 300 304" fill="none" xmlns="http://www.w3.org/2000/svg">
<path d="M4.2 255V211.8H12.36V229.56H31.68V211.8H39.84V255H31.68V237.18H12.36V255H4.2ZM63.3225 255.9C60.0025 255.9 57.0725 255.19 54.5325 253.77C52.0125 252.33 50.0325 250.36 48.5925 247.86C47.1725 245.34 46.4625 242.46 46.4625 239.22C46.4625 235.68 47.1625 232.6 48.5625 229.98C49.9625 227.36 51.8925 225.33 54.3525 223.89C56.8125 222.43 59.6425 221.7 62.8425 221.7C66.2425 221.7 69.1325 222.5 71.5125 224.1C73.8925 225.7 75.6525 227.95 76.7925 230.85C77.9325 233.75 78.3325 237.16 77.9925 241.08H69.9225V238.08C69.9225 234.78 69.3925 232.41 68.3325 230.97C67.2925 229.51 65.5825 228.78 63.2025 228.78C60.4225 228.78 58.3725 229.63 57.0525 231.33C55.7525 233.01 55.1025 235.5 55.1025 238.8C55.1025 241.82 55.7525 244.16 57.0525 245.82C58.3725 247.46 60.3025 248.28 62.8425 248.28C64.4425 248.28 65.8125 247.93 66.9525 247.23C68.0925 246.53 68.9625 245.52 69.5625 244.2L77.7225 246.54C76.5025 249.5 74.5725 251.8 71.9325 253.44C69.3125 255.08 66.4425 255.9 63.3225 255.9ZM52.5825 241.08V235.02H74.0625V241.08H52.5825ZM99.7875 255.9C96.5675 255.9 93.8775 255.15 91.7175 253.65C89.5575 252.15 87.9275 250.11 86.8275 247.53C85.7475 244.95 85.2075 242.04 85.2075 238.8C85.2075 235.56 85.7475 232.65 86.8275 230.07C87.9075 227.49 89.4975 225.45 91.5975 223.95C93.6975 222.45 96.2875 221.7 99.3675 221.7C102.468 221.7 105.168 222.44 107.468 223.92C109.768 225.4 111.548 227.43 112.808 230.01C114.088 232.57 114.728 235.5 114.728 238.8C114.728 242.04 114.098 244.95 112.838 247.53C111.598 250.11 109.858 252.15 107.618 253.65C105.378 255.15 102.768 255.9 99.7875 255.9ZM83.8275 269.4V222.6H91.0275V244.8H92.0475V269.4H83.8275ZM98.4675 248.64C100.228 248.64 101.668 248.2 102.788 247.32C103.908 246.44 104.738 245.26 105.278 243.78C105.818 242.28 106.088 240.62 106.088 238.8C106.088 237 105.808 235.36 105.248 233.88C104.688 232.38 103.818 231.19 102.638 230.31C101.478 229.41 99.9875 228.96 98.1675 228.96C96.4675 228.96 95.0875 229.37 94.0275 230.19C92.9875 231.01 92.2275 232.16 91.7475 233.64C91.2675 235.12 91.0275 236.84 91.0275 238.8C91.0275 240.76 91.2675 242.48 91.7475 243.96C92.2275 245.44 93.0075 246.59 94.0875 247.41C95.1875 248.23 96.6475 248.64 98.4675 248.64ZM136.389 255.9C133.069 255.9 130.139 255.19 127.599 253.77C125.079 252.33 123.099 250.36 121.659 247.86C120.239 245.34 119.529 242.46 119.529 239.22C119.529 235.68 120.229 232.6 121.629 229.98C123.029 227.36 124.959 225.33 127.419 223.89C129.879 222.43 132.709 221.7 135.909 221.7C139.309 221.7 142.199 222.5 144.579 224.1C146.959 225.7 148.719 227.95 149.859 230.85C150.999 233.75 151.399 237.16 151.059 241.08H142.989V238.08C142.989 234.78 142.459 232.41 141.399 230.97C140.359 229.51 138.649 228.78 136.269 228.78C133.489 228.78 131.439 229.63 130.119 231.33C128.819 233.01 128.169 235.5 128.169 238.8C128.169 241.82 128.819 244.16 130.119 245.82C131.439 247.46 133.369 248.28 135.909 248.28C137.509 248.28 138.879 247.93 140.019 247.23C141.159 246.53 142.029 245.52 142.629 244.2L150.789 246.54C149.569 249.5 147.639 251.8 144.999 253.44C142.379 255.08 139.509 255.9 136.389 255.9ZM125.649 241.08V235.02H147.129V241.08H125.649ZM179.034 255V239.7C179.034 238.96 178.994 238.02 178.914 236.88C178.834 235.72 178.584 234.56 178.164 233.4C177.744 232.24 177.054 231.27 176.094 230.49C175.154 229.71 173.814 229.32 172.074 229.32C171.374 229.32 170.624 229.43 169.824 229.65C169.024 229.87 168.274 230.3 167.574 230.94C166.874 231.56 166.294 232.48 165.834 233.7C165.394 234.92 165.174 236.54 165.174 238.56L160.494 236.34C160.494 233.78 161.014 231.38 162.054 229.14C163.094 226.9 164.654 225.09 166.734 223.71C168.834 222.33 171.474 221.64 174.654 221.64C177.194 221.64 179.264 222.07 180.864 222.93C182.464 223.79 183.704 224.88 184.584 226.2C185.484 227.52 186.124 228.9 186.504 230.34C186.884 231.76 187.114 233.06 187.194 234.24C187.274 235.42 187.314 236.28 187.314 236.82V255H179.034ZM156.894 255V222.6H164.154V233.34H165.174V255H156.894ZM208.958 270.3C207.118 270.3 205.368 270 203.708 269.4C202.048 268.82 200.558 268 199.238 266.94C197.938 265.9 196.878 264.68 196.058 263.28L203.618 259.62C204.138 260.58 204.878 261.31 205.838 261.81C206.818 262.31 207.878 262.56 209.018 262.56C210.238 262.56 211.388 262.35 212.468 261.93C213.548 261.53 214.408 260.92 215.048 260.1C215.708 259.3 216.018 258.3 215.978 257.1V247.68H216.998V222.6H224.138V257.22C224.138 258.02 224.098 258.77 224.018 259.47C223.958 260.19 223.838 260.9 223.658 261.6C223.138 263.58 222.168 265.21 220.748 266.49C219.348 267.77 217.628 268.72 215.588 269.34C213.548 269.98 211.338 270.3 208.958 270.3ZM208.238 255.9C205.258 255.9 202.648 255.15 200.408 253.65C198.168 252.15 196.418 250.11 195.158 247.53C193.918 244.95 193.298 242.04 193.298 238.8C193.298 235.5 193.928 232.57 195.188 230.01C196.468 227.43 198.258 225.4 200.558 223.92C202.858 222.44 205.558 221.7 208.658 221.7C211.738 221.7 214.328 222.45 216.428 223.95C218.528 225.45 220.118 227.49 221.198 230.07C222.278 232.65 222.818 235.56 222.818 238.8C222.818 242.04 222.268 244.95 221.168 247.53C220.088 250.11 218.468 252.15 216.308 253.65C214.148 255.15 211.458 255.9 208.238 255.9ZM209.558 248.64C211.378 248.64 212.828 248.23 213.908 247.41C215.008 246.59 215.798 245.44 216.278 243.96C216.758 242.48 216.998 240.76 216.998 238.8C216.998 236.84 216.758 235.12 216.278 233.64C215.798 232.16 215.028 231.01 213.968 230.19C212.928 229.37 211.558 228.96 209.858 228.96C208.038 228.96 206.538 229.41 205.358 230.31C204.198 231.19 203.338 232.38 202.778 233.88C202.218 235.36 201.938 237 201.938 238.8C201.938 240.62 202.208 242.28 202.748 243.78C203.288 245.26 204.118 246.44 205.238 247.32C206.358 248.2 207.798 248.64 209.558 248.64ZM232.48 255L232.54 211.8H240.82V238.2L251.8 222.6H261.88L250.18 238.8L262.66 255H252.04L240.82 239.4V255H232.48ZM277.705 255.96C275.165 255.96 273.095 255.53 271.495 254.67C269.895 253.81 268.645 252.72 267.745 251.4C266.865 250.08 266.235 248.71 265.855 247.29C265.475 245.85 265.245 244.54 265.165 243.36C265.085 242.18 265.045 241.32 265.045 240.78V222.6H273.325V237.9C273.325 238.64 273.365 239.59 273.445 240.75C273.525 241.89 273.775 243.04 274.195 244.2C274.615 245.36 275.295 246.33 276.235 247.11C277.195 247.89 278.545 248.28 280.285 248.28C280.985 248.28 281.735 248.17 282.535 247.95C283.335 247.73 284.085 247.31 284.785 246.69C285.485 246.05 286.055 245.12 286.495 243.9C286.955 242.66 287.185 241.04 287.185 239.04L291.865 241.26C291.865 243.82 291.345 246.22 290.305 248.46C289.265 250.7 287.695 252.51 285.595 253.89C283.515 255.27 280.885 255.96 277.705 255.96ZM288.205 255V244.26H287.185V222.6H295.405V255H288.205Z" fill="#E08300"/>
<path d="M9.80583 297.347C8.54806 297.347 7.4832 297.066 6.61125 296.502C5.73931 295.939 5.0757 295.164 4.62043 294.176C4.17289 293.18 3.9414 292.038 3.92596 290.75C3.9414 289.438 4.1806 288.288 4.64358 287.301C5.10657 286.305 5.77403 285.533 6.64598 284.986C7.51793 284.43 8.57507 284.152 9.8174 284.152C11.0829 284.152 12.1825 284.461 13.1161 285.078C14.0575 285.696 14.7019 286.54 15.0491 287.613L13.3824 288.145C13.0891 287.397 12.6223 286.818 11.9818 286.409C11.3491 285.993 10.6238 285.784 9.80583 285.784C8.88758 285.784 8.12752 285.996 7.52564 286.421C6.92377 286.838 6.47622 287.42 6.183 288.169C5.88978 288.917 5.73931 289.777 5.73159 290.75C5.74702 292.247 6.09426 293.45 6.7733 294.361C7.45234 295.264 8.46318 295.715 9.80583 295.715C10.6546 295.715 11.3761 295.522 11.9703 295.136C12.5721 294.743 13.0274 294.172 13.3361 293.423L15.0491 293.933C14.5861 295.044 13.9071 295.893 13.012 296.479C12.1169 297.058 11.0482 297.347 9.80583 297.347ZM22.2186 297.313C21.4701 297.313 20.8142 297.197 20.2509 296.965C19.6954 296.734 19.2208 296.421 18.8273 296.028C18.4415 295.634 18.1289 295.187 17.8897 294.685C17.6505 294.176 17.4769 293.64 17.3689 293.076C17.2609 292.505 17.2068 291.938 17.2068 291.375V284.5H18.9199V290.877C18.9199 291.564 18.9855 292.2 19.1166 292.787C19.2478 293.373 19.4562 293.886 19.7417 294.326C20.0349 294.758 20.4091 295.094 20.8644 295.333C21.3274 295.572 21.8868 295.692 22.5427 295.692C23.1446 295.692 23.6731 295.588 24.1284 295.38C24.5914 295.171 24.9772 294.874 25.2859 294.488C25.6022 294.095 25.8414 293.62 26.0035 293.065C26.1655 292.501 26.2465 291.869 26.2465 291.166L27.4503 291.433C27.4503 292.714 27.2265 293.79 26.779 294.662C26.3314 295.534 25.7141 296.194 24.9271 296.641C24.14 297.089 23.2372 297.313 22.2186 297.313ZM26.4202 297V293.921H26.2465V284.5H27.948V297H26.4202ZM30.0256 297V296.641L38.0931 286.085H30.6275V284.5H40.8941V284.893L32.8382 295.414H40.4543V297H30.0256ZM53.3597 297.347C52.1405 297.347 51.0834 297.077 50.1883 296.537C49.3009 295.997 48.6103 295.237 48.1165 294.257C47.6226 293.277 47.3757 292.127 47.3757 290.808C47.3757 289.442 47.6187 288.261 48.1049 287.266C48.591 286.27 49.2739 285.503 50.1536 284.962C51.041 284.422 52.0865 284.152 53.2903 284.152C54.5249 284.152 55.5782 284.438 56.4501 285.009C57.3221 285.572 57.9818 286.382 58.4294 287.439C58.8769 288.497 59.0814 289.758 59.0428 291.224H57.3066V290.622C57.2758 289.002 56.9247 287.779 56.2533 286.953C55.5897 286.128 54.6175 285.715 53.3366 285.715C51.9939 285.715 50.9638 286.151 50.2462 287.023C49.5363 287.895 49.1813 289.137 49.1813 290.75C49.1813 292.324 49.5363 293.547 50.2462 294.419C50.9638 295.283 51.9785 295.715 53.2903 295.715C54.1854 295.715 54.9647 295.511 55.6283 295.102C56.2996 294.685 56.8282 294.087 57.214 293.308L58.7997 293.921C58.3059 295.009 57.5767 295.854 56.6122 296.456C55.6553 297.05 54.5712 297.347 53.3597 297.347ZM48.5794 291.224V289.801H58.1284V291.224H48.5794ZM64.5391 297L60.0019 284.5H61.7265L65.4188 294.778L69.0879 284.5H70.8356L66.2984 297H64.5391ZM77.7521 297.347C76.533 297.347 75.4758 297.077 74.5807 296.537C73.6933 295.997 73.0027 295.237 72.5089 294.257C72.015 293.277 71.7681 292.127 71.7681 290.808C71.7681 289.442 72.0112 288.261 72.4973 287.266C72.9834 286.27 73.6663 285.503 74.546 284.962C75.4334 284.422 76.4789 284.152 77.6827 284.152C78.9173 284.152 79.9706 284.438 80.8425 285.009C81.7145 285.572 82.3742 286.382 82.8218 287.439C83.2693 288.497 83.4738 289.758 83.4352 291.224H81.6991V290.622C81.6682 289.002 81.3171 287.779 80.6458 286.953C79.9822 286.128 79.0099 285.715 77.729 285.715C76.3863 285.715 75.3562 286.151 74.6386 287.023C73.9287 287.895 73.5737 289.137 73.5737 290.75C73.5737 292.324 73.9287 293.547 74.6386 294.419C75.3562 295.283 76.3709 295.715 77.6827 295.715C78.5778 295.715 79.3571 295.511 80.0207 295.102C80.6921 294.685 81.2206 294.087 81.6065 293.308L83.1922 293.921C82.6983 295.009 81.9691 295.854 81.0046 296.456C80.0478 297.05 78.9636 297.347 77.7521 297.347ZM72.9719 291.224V289.801H82.5208V291.224H72.9719ZM86.0039 297V284.5H87.5317V287.509L87.2308 287.115C87.3697 286.745 87.551 286.405 87.7748 286.097C87.9986 285.78 88.2416 285.522 88.504 285.321C88.8281 285.036 89.2062 284.82 89.6383 284.673C90.0704 284.519 90.5064 284.43 90.9462 284.407C91.386 284.376 91.7873 284.407 92.15 284.5V286.097C91.6947 285.981 91.197 285.954 90.6568 286.016C90.1167 286.077 89.619 286.294 89.1637 286.664C88.747 286.988 88.4345 287.378 88.2262 287.833C88.0178 288.281 87.879 288.759 87.8095 289.268C87.7401 289.77 87.7053 290.267 87.7053 290.761V297H86.0039ZM95.9699 302.556L98.389 295.993L98.4237 297.938L92.949 284.5H94.7546L99.2455 295.738H98.5047L102.648 284.5H104.385L97.6714 302.556H95.9699ZM111.163 297.347C109.921 297.347 108.86 297.066 107.98 296.502C107.1 295.939 106.425 295.16 105.954 294.164C105.484 293.169 105.248 292.027 105.248 290.738C105.248 289.426 105.488 288.277 105.966 287.289C106.444 286.301 107.123 285.533 108.003 284.986C108.89 284.43 109.944 284.152 111.163 284.152C112.413 284.152 113.478 284.434 114.358 284.997C115.245 285.553 115.92 286.328 116.383 287.324C116.854 288.311 117.089 289.45 117.089 290.738C117.089 292.05 116.854 293.204 116.383 294.199C115.912 295.187 115.233 295.958 114.346 296.514C113.459 297.069 112.398 297.347 111.163 297.347ZM111.163 295.715C112.552 295.715 113.586 295.256 114.265 294.338C114.944 293.412 115.283 292.212 115.283 290.738C115.283 289.226 114.94 288.022 114.253 287.127C113.574 286.232 112.544 285.784 111.163 285.784C110.229 285.784 109.458 285.996 108.848 286.421C108.246 286.838 107.795 287.42 107.494 288.169C107.201 288.909 107.054 289.766 107.054 290.738C107.054 292.243 107.401 293.45 108.096 294.361C108.79 295.264 109.813 295.715 111.163 295.715ZM128.671 297V290.622C128.671 289.928 128.605 289.291 128.474 288.713C128.343 288.126 128.13 287.617 127.837 287.185C127.552 286.745 127.177 286.405 126.714 286.166C126.259 285.927 125.704 285.807 125.048 285.807C124.446 285.807 123.913 285.912 123.45 286.12C122.995 286.328 122.609 286.629 122.293 287.023C121.984 287.409 121.749 287.879 121.587 288.435C121.425 288.99 121.344 289.623 121.344 290.333L120.14 290.067C120.14 288.786 120.364 287.71 120.811 286.838C121.259 285.966 121.876 285.306 122.663 284.858C123.45 284.411 124.353 284.187 125.372 284.187C126.12 284.187 126.772 284.303 127.328 284.534C127.891 284.766 128.366 285.078 128.752 285.472C129.145 285.865 129.461 286.317 129.701 286.826C129.94 287.328 130.113 287.864 130.221 288.435C130.33 288.998 130.384 289.561 130.384 290.125V297H128.671ZM119.631 297V284.5H121.17V287.578H121.344V297H119.631ZM138.609 297.347C137.39 297.347 136.333 297.077 135.437 296.537C134.55 295.997 133.859 295.237 133.366 294.257C132.872 293.277 132.625 292.127 132.625 290.808C132.625 289.442 132.868 288.261 133.354 287.266C133.84 286.27 134.523 285.503 135.403 284.962C136.29 284.422 137.336 284.152 138.539 284.152C139.774 284.152 140.827 284.438 141.699 285.009C142.571 285.572 143.231 286.382 143.679 287.439C144.126 288.497 144.331 289.758 144.292 291.224H142.556V290.622C142.525 289.002 142.174 287.779 141.502 286.953C140.839 286.128 139.867 285.715 138.586 285.715C137.243 285.715 136.213 286.151 135.495 287.023C134.785 287.895 134.43 289.137 134.43 290.75C134.43 292.324 134.785 293.547 135.495 294.419C136.213 295.283 137.228 295.715 138.539 295.715C139.435 295.715 140.214 295.511 140.877 295.102C141.549 294.685 142.077 294.087 142.463 293.308L144.049 293.921C143.555 295.009 142.826 295.854 141.861 296.456C140.904 297.05 139.82 297.347 138.609 297.347ZM133.829 291.224V289.801H143.378V291.224H133.829ZM154.157 297L150.337 284.488L152.039 284.5L155.002 294.211L157.977 284.5H159.528L162.502 294.211L165.489 284.5H167.178L163.359 297H161.877L158.752 287.046L155.639 297H154.157ZM172.139 297.347C171.198 297.347 170.407 297.177 169.767 296.838C169.134 296.498 168.659 296.047 168.343 295.484C168.027 294.92 167.868 294.307 167.868 293.643C167.868 292.964 168.003 292.386 168.274 291.907C168.551 291.421 168.926 291.024 169.396 290.715C169.875 290.406 170.426 290.171 171.051 290.009C171.684 289.855 172.382 289.72 173.146 289.604C173.918 289.48 174.67 289.376 175.403 289.291C176.144 289.199 176.792 289.11 177.348 289.025L176.746 289.396C176.769 288.161 176.53 287.247 176.028 286.652C175.527 286.058 174.655 285.761 173.413 285.761C172.556 285.761 171.831 285.954 171.237 286.34C170.65 286.726 170.237 287.335 169.998 288.169L168.343 287.682C168.628 286.564 169.203 285.696 170.068 285.078C170.932 284.461 172.055 284.152 173.436 284.152C174.578 284.152 175.546 284.368 176.341 284.8C177.143 285.225 177.711 285.842 178.042 286.652C178.197 287.015 178.297 287.42 178.343 287.868C178.39 288.315 178.413 288.771 178.413 289.233V297H176.897V293.863L177.336 294.048C176.912 295.121 176.252 295.939 175.357 296.502C174.462 297.066 173.389 297.347 172.139 297.347ZM172.336 295.877C173.131 295.877 173.825 295.735 174.42 295.449C175.014 295.164 175.492 294.774 175.855 294.28C176.217 293.778 176.453 293.215 176.561 292.59C176.653 292.189 176.704 291.749 176.711 291.271C176.719 290.784 176.723 290.422 176.723 290.183L177.371 290.518C176.792 290.595 176.163 290.673 175.484 290.75C174.813 290.827 174.15 290.916 173.494 291.016C172.845 291.116 172.259 291.236 171.734 291.375C171.379 291.475 171.036 291.618 170.704 291.803C170.372 291.981 170.098 292.22 169.882 292.521C169.674 292.822 169.57 293.196 169.57 293.643C169.57 294.006 169.659 294.357 169.836 294.697C170.021 295.036 170.314 295.318 170.716 295.542C171.125 295.765 171.665 295.877 172.336 295.877ZM190.454 297V290.622C190.454 289.928 190.389 289.291 190.257 288.713C190.126 288.126 189.914 287.617 189.621 287.185C189.335 286.745 188.961 286.405 188.498 286.166C188.043 285.927 187.487 285.807 186.831 285.807C186.229 285.807 185.697 285.912 185.234 286.12C184.779 286.328 184.393 286.629 184.077 287.023C183.768 287.409 183.533 287.879 183.37 288.435C183.208 288.99 183.127 289.623 183.127 290.333L181.924 290.067C181.924 288.786 182.147 287.71 182.595 286.838C183.043 285.966 183.66 285.306 184.447 284.858C185.234 284.411 186.137 284.187 187.155 284.187C187.904 284.187 188.556 284.303 189.111 284.534C189.675 284.766 190.149 285.078 190.535 285.472C190.929 285.865 191.245 286.317 191.484 286.826C191.723 287.328 191.897 287.864 192.005 288.435C192.113 288.998 192.167 289.561 192.167 290.125V297H190.454ZM181.414 297V284.5H182.954V287.578H183.127V297H181.414ZM204.199 297V290.622C204.199 289.928 204.133 289.291 204.002 288.713C203.871 288.126 203.659 287.617 203.365 287.185C203.08 286.745 202.706 286.405 202.243 286.166C201.788 285.927 201.232 285.807 200.576 285.807C199.974 285.807 199.442 285.912 198.979 286.12C198.523 286.328 198.138 286.629 197.821 287.023C197.513 287.409 197.277 287.879 197.115 288.435C196.953 288.99 196.872 289.623 196.872 290.333L195.668 290.067C195.668 288.786 195.892 287.71 196.34 286.838C196.787 285.966 197.405 285.306 198.192 284.858C198.979 284.411 199.882 284.187 200.9 284.187C201.649 284.187 202.301 284.303 202.856 284.534C203.42 284.766 203.894 285.078 204.28 285.472C204.673 285.865 204.99 286.317 205.229 286.826C205.468 287.328 205.642 287.864 205.75 288.435C205.858 288.998 205.912 289.561 205.912 290.125V297H204.199ZM195.159 297V284.5H196.699V287.578H196.872V297H195.159ZM212.492 297.347C211.551 297.347 210.76 297.177 210.119 296.838C209.487 296.498 209.012 296.047 208.696 295.484C208.379 294.92 208.221 294.307 208.221 293.643C208.221 292.964 208.356 292.386 208.626 291.907C208.904 291.421 209.278 291.024 209.749 290.715C210.227 290.406 210.779 290.171 211.404 290.009C212.037 289.855 212.735 289.72 213.499 289.604C214.271 289.48 215.023 289.376 215.756 289.291C216.497 289.199 217.145 289.11 217.701 289.025L217.099 289.396C217.122 288.161 216.883 287.247 216.381 286.652C215.88 286.058 215.008 285.761 213.765 285.761C212.909 285.761 212.183 285.954 211.589 286.34C211.003 286.726 210.59 287.335 210.351 288.169L208.696 287.682C208.981 286.564 209.556 285.696 210.42 285.078C211.284 284.461 212.407 284.152 213.788 284.152C214.93 284.152 215.899 284.368 216.694 284.8C217.496 285.225 218.063 285.842 218.395 286.652C218.549 287.015 218.65 287.42 218.696 287.868C218.742 288.315 218.765 288.771 218.765 289.233V297H217.249V293.863L217.689 294.048C217.265 295.121 216.605 295.939 215.71 296.502C214.815 297.066 213.742 297.347 212.492 297.347ZM212.689 295.877C213.484 295.877 214.178 295.735 214.772 295.449C215.366 295.164 215.845 294.774 216.207 294.28C216.57 293.778 216.805 293.215 216.913 292.59C217.006 292.189 217.056 291.749 217.064 291.271C217.072 290.784 217.076 290.422 217.076 290.183L217.724 290.518C217.145 290.595 216.516 290.673 215.837 290.75C215.166 290.827 214.502 290.916 213.846 291.016C213.198 291.116 212.612 291.236 212.087 291.375C211.732 291.475 211.389 291.618 211.057 291.803C210.725 291.981 210.451 292.22 210.235 292.521C210.027 292.822 209.922 293.196 209.922 293.643C209.922 294.006 210.011 294.357 210.189 294.697C210.374 295.036 210.667 295.318 211.068 295.542C211.477 295.765 212.017 295.877 212.689 295.877ZM232.027 297.347C230.877 297.347 229.905 297.058 229.11 296.479C228.315 295.893 227.713 295.102 227.304 294.106C226.895 293.103 226.691 291.981 226.691 290.738C226.691 289.473 226.895 288.346 227.304 287.358C227.721 286.363 228.33 285.58 229.133 285.009C229.935 284.438 230.923 284.152 232.096 284.152C233.238 284.152 234.218 284.442 235.036 285.02C235.854 285.599 236.479 286.386 236.911 287.382C237.351 288.377 237.571 289.496 237.571 290.738C237.571 291.988 237.351 293.111 236.911 294.106C236.471 295.102 235.838 295.893 235.013 296.479C234.187 297.058 233.192 297.347 232.027 297.347ZM226.401 297V280.333H228.114V287.59H227.929V297H226.401ZM231.853 295.762C232.725 295.762 233.45 295.542 234.029 295.102C234.608 294.662 235.04 294.064 235.325 293.308C235.619 292.544 235.765 291.687 235.765 290.738C235.765 289.797 235.622 288.948 235.337 288.192C235.051 287.436 234.615 286.838 234.029 286.398C233.45 285.958 232.713 285.738 231.818 285.738C230.946 285.738 230.221 285.95 229.642 286.375C229.071 286.799 228.643 287.389 228.357 288.145C228.072 288.894 227.929 289.758 227.929 290.738C227.929 291.703 228.072 292.567 228.357 293.331C228.643 294.087 229.075 294.681 229.654 295.113C230.233 295.545 230.966 295.762 231.853 295.762ZM245.402 297.347C244.183 297.347 243.126 297.077 242.231 296.537C241.343 295.997 240.653 295.237 240.159 294.257C239.665 293.277 239.418 292.127 239.418 290.808C239.418 289.442 239.661 288.261 240.147 287.266C240.633 286.27 241.316 285.503 242.196 284.962C243.083 284.422 244.129 284.152 245.333 284.152C246.567 284.152 247.62 284.438 248.492 285.009C249.364 285.572 250.024 286.382 250.472 287.439C250.919 288.497 251.124 289.758 251.085 291.224H249.349V290.622C249.318 289.002 248.967 287.779 248.296 286.953C247.632 286.128 246.66 285.715 245.379 285.715C244.036 285.715 243.006 286.151 242.288 287.023C241.579 287.895 241.224 289.137 241.224 290.75C241.224 292.324 241.579 293.547 242.288 294.419C243.006 295.283 244.021 295.715 245.333 295.715C246.228 295.715 247.007 295.511 247.671 295.102C248.342 294.685 248.871 294.087 249.256 293.308L250.842 293.921C250.348 295.009 249.619 295.854 248.654 296.456C247.698 297.05 246.613 297.347 245.402 297.347ZM240.622 291.224V289.801H250.171V291.224H240.622ZM258.288 297V284.5H259.816V287.509L259.515 287.115C259.654 286.745 259.835 286.405 260.059 286.097C260.283 285.78 260.526 285.522 260.788 285.321C261.112 285.036 261.49 284.82 261.923 284.673C262.355 284.519 262.791 284.43 263.23 284.407C263.67 284.376 264.072 284.407 264.434 284.5V286.097C263.979 285.981 263.481 285.954 262.941 286.016C262.401 286.077 261.903 286.294 261.448 286.664C261.031 286.988 260.719 287.378 260.51 287.833C260.302 288.281 260.163 288.759 260.094 289.268C260.024 289.77 259.99 290.267 259.99 290.761V297H258.288ZM266.861 282.127V280.217H268.563V282.127H266.861ZM266.861 297V284.5H268.563V297H266.861ZM277.218 297.347C275.961 297.347 274.896 297.066 274.024 296.502C273.152 295.939 272.488 295.164 272.033 294.176C271.585 293.18 271.354 292.038 271.338 290.75C271.354 289.438 271.593 288.288 272.056 287.301C272.519 286.305 273.186 285.533 274.058 284.986C274.93 284.43 275.988 284.152 277.23 284.152C278.495 284.152 279.595 284.461 280.529 285.078C281.47 285.696 282.114 286.54 282.462 287.613L280.795 288.145C280.502 287.397 280.035 286.818 279.394 286.409C278.762 285.993 278.036 285.784 277.218 285.784C276.3 285.784 275.54 285.996 274.938 286.421C274.336 286.838 273.889 287.42 273.595 288.169C273.302 288.917 273.152 289.777 273.144 290.75C273.159 292.247 273.507 293.45 274.186 294.361C274.865 295.264 275.876 295.715 277.218 295.715C278.067 295.715 278.789 295.522 279.383 295.136C279.985 294.743 280.44 294.172 280.749 293.423L282.462 293.933C281.999 295.044 281.32 295.893 280.424 296.479C279.529 297.058 278.461 297.347 277.218 297.347ZM293.879 297V290.622C293.879 289.928 293.813 289.291 293.682 288.713C293.551 288.126 293.339 287.617 293.046 287.185C292.76 286.745 292.386 286.405 291.923 286.166C291.468 285.927 290.912 285.807 290.256 285.807C289.654 285.807 289.122 285.912 288.659 286.12C288.204 286.328 287.818 286.629 287.501 287.023C287.193 287.409 286.957 287.879 286.795 288.435C286.633 288.99 286.552 289.623 286.552 290.333L285.348 290.067C285.348 288.786 285.572 287.71 286.02 286.838C286.467 285.966 287.085 285.306 287.872 284.858C288.659 284.411 289.562 284.187 290.58 284.187C291.329 284.187 291.981 284.303 292.536 284.534C293.1 284.766 293.574 285.078 293.96 285.472C294.353 285.865 294.67 286.317 294.909 286.826C295.148 287.328 295.322 287.864 295.43 288.435C295.538 288.998 295.592 289.561 295.592 290.125V297H293.879ZM284.839 297V280.333H286.379V289.743H286.552V297H284.839Z" fill="#E08300"/>
<path d="M172 54.5295H223V132.529C223 160.696 200.167 183.529 172 183.529V183.529V54.5295Z" fill="#FF9F17"/>
<path fill-rule="evenodd" clip-rule="evenodd" d="M123.064 54.4242C94.8621 54.4242 72 77.2864 72 105.488V183.529H123.064V155.77C111.436 147.887 103.795 134.565 103.795 119.459C103.795 104.352 111.436 91.0299 123.064 83.1469V54.4242Z" fill="#FF9F17"/>
<g filter="url(#filter0_d_59_2370)">
<circle cx="148" cy="119.529" r="36" fill="#FF9F17"/>
</g>
<path d="M239.5 24.1467C240.372 22.5075 242.813 22.8374 243.218 24.6493L246.116 37.6085C246.244 38.1781 246.614 38.6637 247.129 38.9378L258.853 45.1732C260.493 46.045 260.163 48.4856 258.351 48.8908L245.391 51.7892C244.822 51.9166 244.336 52.2865 244.062 52.8018L237.827 64.5263C236.955 66.1655 234.514 65.8355 234.109 64.0237L231.211 51.0644C231.083 50.4948 230.714 50.0092 230.198 49.7351L218.474 43.4997C216.835 42.6279 217.164 40.1874 218.976 39.7821L231.936 36.8838C232.505 36.7564 232.991 36.3865 233.265 35.8711L239.5 24.1467Z" fill="#FF9F17"/>
<defs>
<filter id="filter0_d_59_2370" x="110" y="83.5295" width="74" height="74" filterUnits="userSpaceOnUse" color-interpolation-filters="sRGB">
<feFlood flood-opacity="0" result="BackgroundImageFix"/>
<feColorMatrix in="SourceAlpha" type="matrix" values="0 0 0 0 0 0 0 0 0 0 0 0 0 0 0 0 0 0 127 0" result="hardAlpha"/>
<feOffset dx="-2" dy="2"/>
<feComposite in2="hardAlpha" operator="out"/>
<feColorMatrix type="matrix" values="0 0 0 0 1 0 0 0 0 0.866667 0 0 0 0 0.678431 0 0 0 1 0"/>
<feBlend mode="normal" in2="BackgroundImageFix" result="effect1_dropShadow_59_2370"/>
<feBlend mode="normal" in="SourceGraphic" in2="effect1_dropShadow_59_2370" result="shape"/>
</filter>
</defs>
</svg>
